<?xml version="1.0" standalone="no"?><!DOCTYPE svg PUBLIC "-//W3C//DTD SVG 1.1//EN" "http://www.w3.org/Graphics/SVG/1.1/DTD/svg11.dtd"><svg t="1665301026959" class="icon" viewBox="0 0 1024 1024" version="1.1" xmlns="http://www.w3.org/2000/svg" p-id="3050" xmlns:xlink="http://www.w3.org/1999/xlink" width="200" height="200"><path d="M1024 361.813333v204.8H0v-204.8c0-20.48 6.826667-40.96 27.306667-54.613333 13.653333-13.653333 40.96-20.48 68.266666-20.48h204.8V197.973333c0-13.653333 6.826667-27.306667 13.653334-34.133333 6.826667-6.826667 20.48-13.653333 34.133333-13.653333H682.666667c13.653333 0 27.306667 6.826667 34.133333 13.653333 6.826667 6.826667 13.653333 20.48 13.653333 34.133333v88.746667h197.973334c20.48 0 40.96 6.826667 68.266666 20.48 20.48 13.653333 27.306667 34.133333 27.306667 54.613333zM1024 614.4v245.76c0 20.48-6.826667 40.96-27.306667 61.44-13.653333 13.653333-40.96 20.48-68.266666 20.48H95.573333c-20.48 0-40.96-6.826667-68.266666-20.48-13.653333-13.653333-27.306667-40.96-27.306667-61.44V614.4h382.293333v81.92c0 6.826667 6.826667 13.653333 6.826667 20.48 6.826667 6.826667 13.653333 6.826667 27.306667 6.826667h184.32c6.826667 0 20.48 0 27.306666-6.826667 6.826667-6.826667 13.653333-13.653333 6.826667-20.48V614.4H1024zM368.64 273.066667h293.546667V204.8H368.64v68.266667z m218.453333 341.333333v68.266667H436.906667V614.4h150.186666z" p-id="3051" fill="#e6e6e6"></path></svg>